<svg xmlns="http://www.w3.org/2000/svg" width="48" height="48" viewBox="0 0 48 48"><path fill="#F2B211" d="M43.39 31.108L37.16 37.36l-.006.007a3.958 3.958 0 0 1-1.71 1.014 4.036 4.036 0 0 1-4.014-1.02l-7.455-7.45-1.72 1.72a3.89 3.89 0 0 1-1.094.778 4.102 4.102 0 0 1-2.475.343 3.94 3.94 0 0 1-.78-.21 3.902 3.902 0 0 1-.718-.375 4.6 4.6 0 0 1-.658-.537h-.007l-.507-.622 4.523-4.533 3.423-3.423.012-.012v-.006a2.43 2.43 0 0 1 3.435 0l1.72 1.722 3.95-3.96 10.31 10.314z"/><path fill="#FACE32" d="M37.15 37.367l-8.03 8.028a7.24 7.24 0 0 1-10.16.082L4.612 31.107l10.31-10.315 3.895 3.964 1.72-1.72a2.412 2.412 0 0 1 3.43 0s-.006 0-.006.007v.006l-3.424 3.423-4.523 4.533.507.622h.006c.205.205.43.38.658.537.23.15.47.278.718.375.254.097.513.17.78.21a4.102 4.102 0 0 0 1.853-.102c.21-.06.42-.144.62-.24a3.89 3.89 0 0 0 1.093-.78l1.722-1.713 5.19 5.193 2.26 2.258a4.027 4.027 0 0 0 4.02 1.015c.63-.18 1.214-.518 1.71-1.013z"/><path fill="#4F74B3" d="M14.925 20.79L4.615 31.107l-3.448-3.46A4.002 4.002 0 0 1 0 24.824V10.54a1 1 0 0 1 1-1h1.87c.53 0 1.04.21 1.414.586 3.885 3.896 10.64 10.665 10.64 10.665zM48 10.54V24.83c0 1.06-.42 2.074-1.167 2.824l-3.443 3.454L33.08 20.79s6.755-6.768 10.636-10.663a1.99 1.99 0 0 1 1.415-.586H47a1 1 0 0 1 1 1z"/></svg>