<svg xmlns="http://www.w3.org/2000/svg" width="48" height="48" viewBox="0 0 48 48"><path fill="#FACE32" d="M40.636 31.667l-4.538 4.538a4.106 4.106 0 0 1-2.895 1.203 4.084 4.084 0 0 1-2.845-1.158l-8.107-8.118 5.825-5.83 2.2 2.245.973-.974a1.362 1.362 0 0 1 1.938 0l-.006.006-1.932 1.937-2.556 2.56.284.352h.006c.117.116.24.21.373.3.128.09.262.16.406.212.14.056.29.1.44.122a2.402 2.402 0 0 0 1.047-.056c.117-.04.24-.084.35-.14.224-.105.435-.255.62-.44l.968-.968 2.934 2.934 1.274 1.275c.056.055.117.11.178.155.122.1.245.184.38.25.055.034.116.062.177.085.01.006.016.006.027.01.14.062.278.1.418.13.256.05.512.055.768.016h.01a2.02 2.02 0 0 0 .313-.072 2.21 2.21 0 0 0 .97-.577z"/><path fill="#F2B211" d="M44.16 28.132l-3.524 3.535a2.164 2.164 0 0 1-.97.573 1.91 1.91 0 0 1-.31.072h-.012a2.227 2.227 0 0 1-1.186-.145c-.01-.006-.017-.006-.028-.01a.965.965 0 0 1-.178-.085 2.007 2.007 0 0 1-.38-.25 1.53 1.53 0 0 1-.177-.157L36.12 30.39l-2.934-2.934-.97.97a2.242 2.242 0 0 1-.617.44c-.112.055-.235.1-.352.138a2.384 2.384 0 0 1-1.046.056c-.15-.022-.3-.067-.44-.122a1.622 1.622 0 0 1-.406-.212 2.365 2.365 0 0 1-.373-.3h-.006l-.284-.352 2.556-2.56 1.93-1.94.007-.005h.006c.267-.268.618-.407.97-.407.35 0 .7.14.968.406l.975.968.028-.028 2.205-2.21 5.822 5.832z"/><path fill="#4F74B3" d="M47.494 23.275c.425.425.426 1.115.002 1.54l-3.318 3.333-.017-.017-5.823-5.828 4.087-4.098 5.07 5.07zM28.075 22.302l-5.824 5.83-3.28-3.277a1.092 1.092 0 0 1-.002-1.544l5.026-5.025 4.08 4.017z"/><path fill="#4F74B3" d="M48 40.138v6.545a1.09 1.09 0 0 1-1.09 1.09H1.09A1.09 1.09 0 0 1 0 46.684V24.678c0-.58.23-1.134.64-1.543L23.23.545a1.09 1.09 0 0 1 1.542 0l14.38 14.38-6.174 6.17L24 12.118h-.005L8.727 27.39h-.005v11.656H46.91c.602 0 1.09.49 1.09 1.092z"/></svg>