<svg xmlns="http://www.w3.org/2000/svg" width="48" height="48" viewBox="0 0 48 48"><circle fill="#4F74B3" cx="24.149" cy="24" r="24"/><circle fill="#FFF" cx="24.149" cy="24" r="17"/><circle fill="#4F74B3" cx="24.229" cy="24" r="15"/><path fill="#E36E5B" d="M23.84 32.95a3.762 3.762 0 0 1-2.865-1.303l-5.13-5.858a2.35 2.35 0 0 1-.584-1.586 2.406 2.406 0 0 1 3.525-2.13l3.952 2.154 9.83-13.355.018-.023c.495-.594 1.177-.92 1.92-.92a2.406 2.406 0 0 1 2.402 2.402c0 .403-.104.798-.3 1.14l-9.42 17.494a3.815 3.815 0 0 1-3.348 1.984z"/><path fill="#FFF" d="M34.504 10.927c.758 0 1.403.618 1.403 1.403 0 .225-.056.45-.168.645L26.307 30.49a2.81 2.81 0 0 1-2.47 1.458 2.76 2.76 0 0 1-2.105-.954l-5.136-5.866a1.342 1.342 0 0 1-.337-.926 1.407 1.407 0 0 1 2.077-1.235l4.687 2.554 10.33-14.033c.28-.335.673-.56 1.15-.56m0-2c-1.044 0-2 .455-2.687 1.28l-.04.047-.035.05-9.294 12.627-3.154-1.718-.03-.017-.033-.016a3.407 3.407 0 0 0-4.97 3.024c0 .855.292 1.635.843 2.254l5.126 5.854a4.75 4.75 0 0 0 3.61 1.637c1.76 0 3.378-.958 4.223-2.5l9.43-17.51a3.302 3.302 0 0 0 .416-1.61 3.41 3.41 0 0 0-3.406-3.403z"/></svg>